<svg viewBox="0 0 100 100" xmlns="http://www.w3.org/2000/svg">
  <g fill="#44DD80">
    <path d="M60.055 64.01v7.592h4.579a9.196 9.196 0 11-9.196 9.196V64.01H43.23v-2.308a20.388 20.388 0 0110.194-17.657 15.771 15.771 0 10-22.926-18.403l-4.403-1.388a20.388 20.388 0 1129.638 23.79 15.772 15.772 0 00-7.717 11.35h7.422v-4.58a9.196 9.196 0 119.196 9.196h-4.58zm4.579 12.209h-4.58v4.579a4.58 4.58 0 104.58-4.58zm-4.58-21.404v4.58h4.58a4.58 4.58 0 10-4.58-4.58z"/>
    <path d="M49.452 69.997h-3.913a3.913 3.913 0 103.913 3.913v-3.913z"/>
  </g>
</svg>
